HIERARCHY
ROOT hip
{
  OFFSET 0 0 0
  CHANNELS 6 Xposition Yposition Zposition Zrotation Yrotation Xrotation
  JOINT abdomen
  {
    OFFSET 0 20.6881 -0.73152
    CHANNELS 3 Zrotation Xrotation Yrotation
    JOINT chest
    {
      OFFSET 0 11.7043 -0.48768
      CHANNELS 3 Zrotation Xrotation Yrotation
      JOINT neck
      {
        OFFSET 0 22.1894 -2.19456
        CHANNELS 3 Zrotation Xrotation Yrotation
        JOINT head
        {
          OFFSET -0.24384 7.07133 1.2192
          CHANNELS 3 Zrotation Xrotation Yrotation
          JOINT leftEye
          {
            OFFSET 4.14528 8.04674 8.04672
            CHANNELS 3 Zrotation Xrotation Yrotation
            End Site
            {
              OFFSET 1 0 0
            }
          }
          JOINT rightEye
          {
            OFFSET -3.6576 8.04674 8.04672
            CHANNELS 3 Zrotation Xrotation Yrotation
            End Site
            {
              OFFSET 1 0 0
            }
          }
        }
      }
      JOINT rCollar
      {
        OFFSET -2.68224 19.2634 -4.8768
        CHANNELS 3 Zrotation Xrotation Yrotation
        JOINT rShldr
        {
          OFFSET -8.77824 -1.95073 1.46304
          CHANNELS 3 Zrotation Xrotation Yrotation
          JOINT rForeArm
          {
            OFFSET -28.1742 -1.7115 0.48768
            CHANNELS 3 Zrotation Xrotation Yrotation
            JOINT rHand
            {
              OFFSET -22.5879 0.773209 7.07136
              CHANNELS 3 Zrotation Xrotation Yrotation
              JOINT rThumb1
              {
                OFFSET -1.2192 -0.487915 3.41376
                CHANNELS 3 Zrotation Xrotation Yrotation
                JOINT rThumb2
                {
                  OFFSET -3.37035 -0.52449 3.41376
                  CHANNELS 3 Zrotation Xrotation Yrotation
                  End Site
                  {
                    OFFSET -1.78271 -1.18214 1.43049
                  }
                }
              }
              JOINT rIndex1
              {
                OFFSET -7.75947 0.938293 5.60832
                CHANNELS 3 Zrotation Xrotation Yrotation
                JOINT rIndex2
                {
                  OFFSET -2.54057 -0.884171 1.56538
                  CHANNELS 3 Zrotation Xrotation Yrotation
                  End Site
                  {
                    OFFSET -1.62519 -0.234802 1.16502
                  }
                }
              }
              JOINT rMid1
              {
                OFFSET -8.24714 1.18213 3.41376
                CHANNELS 3 Zrotation Xrotation Yrotation
                JOINT rMid2
                {
                  OFFSET -3.10165 -0.590103 1.0647
                  CHANNELS 3 Zrotation Xrotation Yrotation
                  End Site
                  {
                    OFFSET -2.48547 -0.328903 0.83742
                  }
                }
              }
              JOINT rRing1
              {
                OFFSET -8.82822 0.546677 1.51678
                CHANNELS 3 Zrotation Xrotation Yrotation
                JOINT rRing2
                {
                  OFFSET -2.60934 -0.819778 -0.0198488
                  CHANNELS 3 Zrotation Xrotation Yrotation
                  End Site
                  {
                    OFFSET -2.33842 -0.294052 0.168128
                  }
                }
              }
              JOINT rPinky1
              {
                OFFSET -8.27202 -0.0477905 -0.4584
                CHANNELS 3 Zrotation Xrotation Yrotation
                JOINT rPinky2
                {
                  OFFSET -1.82734 -0.647385 -0.700984
                  CHANNELS 3 Zrotation Xrotation Yrotation
                  End Site
                  {
                    OFFSET -1.69225 -0.51767 -0.607171
                  }
                }
              }
            }
          }
        }
      }
      JOINT lCollar
      {
        OFFSET 2.68224 19.2634 -4.8768
        CHANNELS 3 Zrotation Xrotation Yrotation
        JOINT lShldr
        {
          OFFSET 8.77824 -1.95073 1.46304
          CHANNELS 3 Zrotation Xrotation Yrotation
          JOINT lForeArm
          {
            OFFSET 28.1742 -1.7115 0.48768
            CHANNELS 3 Zrotation Xrotation Yrotation
            JOINT lHand
            {
              OFFSET 22.5879 0.773209 7.07136
              CHANNELS 3 Zrotation Xrotation Yrotation
              JOINT lThumb1
              {
                OFFSET 1.2192 -0.487915 3.41376
                CHANNELS 3 Zrotation Xrotation Yrotation
                JOINT lThumb2
                {
                  OFFSET 3.37035 -0.52449 3.41376
                  CHANNELS 3 Zrotation Xrotation Yrotation
                  End Site
                  {
                    OFFSET 1.78271 -1.18214 1.43049
                  }
                }
              }
              JOINT lIndex1
              {
                OFFSET 7.75947 0.938293 5.60832
                CHANNELS 3 Zrotation Xrotation Yrotation
                JOINT lIndex2
                {
                  OFFSET 2.54057 -0.884171 1.56538
                  CHANNELS 3 Zrotation Xrotation Yrotation
                  End Site
                  {
                    OFFSET 1.62519 -0.234802 1.16502
                  }
                }
              }
              JOINT lMid1
              {
                OFFSET 8.24714 1.18213 3.41376
                CHANNELS 3 Zrotation Xrotation Yrotation
                JOINT lMid2
                {
                  OFFSET 3.10165 -0.590103 1.0647
                  CHANNELS 3 Zrotation Xrotation Yrotation
                  End Site
                  {
                    OFFSET 2.48547 -0.328903 0.83742
                  }
                }
              }
              JOINT lRing1
              {
                OFFSET 8.82822 0.546677 1.51678
                CHANNELS 3 Zrotation Xrotation Yrotation
                JOINT lRing2
                {
                  OFFSET 2.60934 -0.819778 -0.0198488
                  CHANNELS 3 Zrotation Xrotation Yrotation
                  End Site
                  {
                    OFFSET 2.33842 -0.294052 0.168128
                  }
                }
              }
              JOINT lPinky1
              {
                OFFSET 8.27202 -0.0477905 -0.4584
                CHANNELS 3 Zrotation Xrotation Yrotation
                JOINT lPinky2
                {
                  OFFSET 1.82734 -0.647385 -0.700984
                  CHANNELS 3 Zrotation Xrotation Yrotation
                  End Site
                  {
                    OFFSET 1.69225 -0.51767 -0.607171
                  }
                }
              }
            }
          }
        }
      }
    }
  }
  JOINT rButtock
  {
    OFFSET -8.77824 4.35084 1.2192
    CHANNELS 3 Zrotation Xrotation Yrotation
    JOINT rThigh
    {
      OFFSET 0 -1.70687 -2.19456
      CHANNELS 3 Zrotation Xrotation Yrotation
      JOINT rShin
      {
        OFFSET 0 -36.8199 0.73152
        CHANNELS 3 Zrotation Xrotation Yrotation
        JOINT rFoot
        {
          OFFSET 0.73152 -45.1104 -5.12064
          CHANNELS 3 Zrotation Xrotation Yrotation
          End Site
          {
            OFFSET -1.1221 -3.69964 12.103
          }
        }
      }
    }
  }
  JOINT lButtock
  {
    OFFSET 8.77824 4.35084 1.2192
    CHANNELS 3 Zrotation Xrotation Yrotation
    JOINT lThigh
    {
      OFFSET 0 -1.70687 -2.19456
      CHANNELS 3 Zrotation Xrotation Yrotation
      JOINT lShin
      {
        OFFSET 0 -36.8199 0.73152
        CHANNELS 3 Zrotation Xrotation Yrotation
        JOINT lFoot
        {
          OFFSET -0.73152 -45.1104 -5.12064
          CHANNELS 3 Zrotation Xrotation Yrotation
          End Site
          {
            OFFSET 1.1221 -3.69964 12.103
          }
        }
      }
    }
  }
}
MOTION
Frames:	4
Frame Time:	0.00833333
-20.1861 83.7484 -190.492 0.0 0.0 0.0 -0.188094 -0.00125239 -0.00538539 -0.0519273 -0.00198486 -0.00899613 7.58732e-16 0.0 -2.0433e-24 2.30777e-15 3.18055e-15 -1.0871e-17 -0.0 0.0 0.0 -0.0 0.0 0.0 4.45962e-16 1.16475e-18 1.49089e-16 9.91254e-15 4.96962e-17 7.95139e-16 1.35124e-13 -4.13472e-14 6.36111e-15 1.5632e-12 4.09993e-14 -9.54166e-15 3.68158e-12 -9.03901e-16 0.0 6.3464e-12 0.0 -1.66979e-14 3.68587e-12 -3.97569e-16 -1.59028e-14 7.73091 5.47488 0.417314 3.68095e-12 -8.94531e-16 -6.36111e-15 2.90554 0.965183 0.102902 3.68556e-12 -9.93923e-16 -9.54166e-15 10.2786 0.731801 0.0259123 3.68149e-12 -1.98785e-15 -3.18055e-15 2.22167 -0.733487 -0.20892 3.49202e-16 1.55301e-18 -1.49089e-16 5.99654e-15 1.36664e-16 -7.95139e-16 1.38404e-13 4.13472e-14 -2.22639e-14 1.55567e-12 -3.89369e-14 2.22639e-14 3.67743e-12 1.99952e-15 -2.22639e-14 6.35356e-12 0.0 -2.46493e-14 3.67116e-12 3.18055e-15 -9.54166e-15 -7.73091 5.47488 -0.417314 3.67791e-12 1.2921e-15 -1.59028e-14 -2.90554 0.965183 -0.102902 3.67088e-12 1.88845e-15 -1.19271e-14 -10.2786 0.731801 -0.0259123 3.68527e-12 3.97569e-15 -1.59028e-14 -2.22167 -0.733487 0.20892 -2.03217e-16 0.0 -3.88251e-19 0.336786 -2.83766 -0.0337254 -0.00646431 -0.412349 -0.0567837 -0.478927 3.24961 0.120282 2.03217e-16 0.0 3.88251e-19 -0.623483 -3.58113 0.051656 0.00431589 0.934361 0.0368606 0.48168 2.6464 -0.108449
-18.4748 79.314 -196.671 36.8167 85.3663 54.7985 -0.978045 -5.31712 -0.678236 0.126349 -1.07454 -0.107103 -3.86753 4.56324 -6.61057 5.70876 -1.85654 -12.7049 -0.0 0.0 0.0 -0.0 0.0 0.0 -3.61076e-14 6.76496e-13 -1.94064e-14 4.37146 3.79473 7.97732 -5.75985 -3.00563 8.55395 0.240886 -11.2099 -1.47634 -4.92847e-10 -1.61556e-09 8.78623e-10 -8.7673e-10 -2.80424e-09 1.50303e-09 -4.92841e-10 -1.61556e-09 8.78603e-10 7.73091 5.47488 0.417314 -4.92847e-10 -1.61556e-09 8.78619e-10 2.90554 0.965183 0.102902 -4.92839e-10 -1.61555e-09 8.78611e-10 10.2786 0.731801 0.0259123 -4.92849e-10 -1.61556e-09 8.78623e-10 2.22167 -0.733487 -0.20892 -3.61902e-14 6.76494e-13 -1.96909e-14 -9.57828 -5.82021 4.27521 2.12145 -0.745765 -3.51262 -0.463393 15.2034 -1.87499 -3.91828e-10 1.36455e-09 -1.7829e-11 -6.74703e-10 2.3846e-09 -1.15806e-11 -3.91834e-10 1.36455e-09 -1.78159e-11 -7.73091 5.47488 -0.417314 -3.91826e-10 1.36455e-09 -1.78261e-11 -2.90554 0.965183 -0.102902 -3.91833e-10 1.36455e-09 -1.78209e-11 -10.2786 0.731801 -0.0259123 -3.91821e-10 1.36455e-09 -1.78269e-11 -2.22167 -0.733487 0.20892 -2.03217e-16 0.0 -3.88251e-19 -8.88303 -12.3926 -0.191243 0.172364 10.144 0.320837 -1.71366 -17.1062 -3.16939 2.03217e-16 0.0 3.88251e-19 -1.89033 -12.0754 -0.983821 -0.0409818 11.6369 -0.145658 1.3577 -3.57898 6.9615
-18.3111 79.2294 -196.353 36.1373 84.9484 53.9718 -1.97773 -10.9583 -1.40123 0.308929 -2.19941 -0.206871 -6.79956 9.18827 -13.7395 10.8719 -3.50228 -26.1853 -0.0 0.0 0.0 -0.0 0.0 0.0 -7.43638e-14 1.4018e-12 -3.98066e-14 7.82944 7.83851 16.5936 -10.9755 -6.03051 17.8278 -0.195755 -23.3304 -3.28405 -1.02938e-09 -3.35284e-09 1.84689e-09 -1.83155e-09 -5.82045e-09 3.15957e-09 -1.02938e-09 -3.35284e-09 1.84686e-09 7.73091 5.47488 0.417314 -1.02938e-09 -3.35284e-09 1.84688e-09 2.90554 0.965183 0.102902 -1.02937e-09 -3.35283e-09 1.84687e-09 10.2786 0.731801 0.0259123 -1.02939e-09 -3.35284e-09 1.84689e-09 2.22167 -0.733487 -0.20892 -7.44314e-14 1.40179e-12 -4.00768e-14 -18.8212 -11.8801 8.92292 4.26346 -1.52412 -7.22547 0.294858 31.2367 -4.35604 -8.37854e-10 2.93886e-09 -2.73611e-11 -1.44232e-09 5.13229e-09 -6.54314e-12 -8.37859e-10 2.93885e-09 -2.73474e-11 -7.73091 5.47488 -0.417314 -8.37851e-10 2.93885e-09 -2.73621e-11 -2.90554 0.965183 -0.102902 -8.37857e-10 2.93886e-09 -2.73554e-11 -10.2786 0.731801 -0.0259123 -8.37847e-10 2.93886e-09 -2.73635e-11 -2.22167 -0.733487 0.20892 -2.03217e-16 0.0 -3.88251e-19 -18.7387 -22.492 -0.361229 0.200745 21.2852 0.762385 -6.19771 -38.374 -8.16068 2.03217e-16 0.0 3.88251e-19 -3.60792 -21.0661 -2.18334 -0.00892273 22.9365 -0.360274 3.94636 -9.85755 14.6171
-18.11 79.3843 -196.161 35.7424 84.4312 53.4023 -2.94519 -15.9398 -2.0958 0.471869 -3.21962 -0.30374 -8.4452 12.9542 -20.3073 14.8521 -4.49035 -38.2329 -0.0 0.0 0.0 -0.0 0.0 0.0 -1.09215e-13 2.02949e-12 -5.85172e-14 10.0024 10.4994 24.3118 -14.6643 -8.21469 25.9115 -1.30185 -33.5311 -5.21403 -1.4859e-09 -4.84667e-09 2.63587e-09 -2.64288e-09 -8.41273e-09 4.50912e-09 -1.48589e-09 -4.84667e-09 2.63584e-09 7.73091 5.47488 0.417314 -1.4859e-09 -4.84667e-09 2.63587e-09 2.90554 0.965183 0.102902 -1.48589e-09 -4.84666e-09 2.63585e-09 10.2786 0.731801 0.0259123 -1.48591e-09 -4.84668e-09 2.63587e-09 2.22167 -0.733487 -0.20892 -1.09269e-13 2.02948e-12 -5.87746e-14 -26.0522 -17.0632 13.3575 6.09157 -2.20369 -10.5448 2.65813 45.3713 -7.73861 -1.18284e-09 4.09365e-09 -5.34423e-11 -2.03681e-09 7.1538e-09 -3.46924e-11 -1.18284e-09 4.09364e-09 -5.34285e-11 -7.73091 5.47488 -0.417314 -1.18283e-09 4.09364e-09 -5.34466e-11 -2.90554 0.965183 -0.102902 -1.18284e-09 4.09365e-09 -5.3439e-11 -10.2786 0.731801 -0.0259123 -1.18283e-09 4.09365e-09 -5.34488e-11 -2.22167 -0.733487 0.20892 -2.03217e-16 0.0 -3.88251e-19 -27.505 -31.5013 -0.578209 0.0547559 31.2513 1.24114 -15.8796 -56.7041 -17.1718 2.03217e-16 0.0 3.88251e-19 -5.46054 -29.0259 -3.41912 0.105407 33.0408 -0.598494 7.73479 -15.0069 21.8413
